<?xml version="1.0" encoding="utf-8"?>
<!-- Generator: Adobe Illustrator 24.1.2, SVG Export Plug-In . SVG Version: 6.00 Build 0)  -->
<svg version="1.1" baseProfile="tiny" xmlns="http://www.w3.org/2000/svg" xmlns:xlink="http://www.w3.org/1999/xlink" x="0px"
	 y="0px" viewBox="0 0 129.07 226.5" overflow="visible" xml:space="preserve">
<g id="BACKGROUND" display="none">
	<rect x="-132.25" y="52.67" display="inline" fill="#12243A" width="500" height="500"/>
</g>
<g id="OBJECTS" display="none">
	
		<ellipse transform="matrix(0.7071 -0.7071 0.7071 0.7071 -74.7173 82.8051)" display="inline" fill="#DD7E1F" cx="62.6" cy="131.59" rx="185.99" ry="186"/>
	<path display="inline" fill="#C96E1C" d="M78.33-53.69c4.28,0.36,8.54,0.81,12.74,1.46v367.65c-4.2,0.64-8.45,1.1-12.74,1.46
		V-53.69z M210.97,243.73c4.64-6.13,8.88-12.56,12.74-19.25V38.7c-3.86-6.68-8.1-13.12-12.74-19.25V243.73z M135.28-39.65
		c-4.16-1.77-8.43-3.35-12.74-4.82v352.13c4.31-1.47,8.57-3.05,12.74-4.82V-39.65z M179.5-13.04c-4.11-3.33-8.35-6.51-12.74-9.48
		V285.7c4.39-2.97,8.63-6.15,12.74-9.48V-13.04z M46.86-53.69c-4.28,0.36-8.54,0.81-12.74,1.46v367.65c4.2,0.64,8.45,1.1,12.74,1.46
		V-53.69z M-98.52,224.49c3.86,6.68,8.1,13.12,12.74,19.25V19.46c-4.64,6.13-8.88,12.56-12.74,19.25V224.49z M-54.3,276.23
		c4.11,3.33,8.35,6.51,12.74,9.48V-22.52c-4.39,2.97-8.63,6.15-12.74,9.48V276.23z M2.65-44.47c-4.31,1.47-8.57,3.05-12.74,4.82
		v342.5c4.16,1.77,8.43,3.35,12.74,4.82V-44.47z"/>
	<circle display="inline" fill="#F2CD19" cx="62.6" cy="113.75" r="186"/>
	<path display="inline" fill="#E9F408" d="M62.6-68.34c102.07,0,184.92,82.22,185.97,184.04c0.01-0.65,0.02-1.3,0.02-1.95
		c0-102.72-83.27-186-186-186s-186,83.27-186,186c0,0.65,0.02,1.3,0.02,1.95C-122.33,13.88-39.47-68.34,62.6-68.34z"/>
	<path display="inline" fill="#E9F408" d="M243.56,70.85c-0.86-3.62-1.8-7.21-2.86-10.75L101.33,97.44l124.92-72.12
		c-1.77-3.27-3.66-6.46-5.62-9.61L95.77,87.8L197.64-14.07c-2.55-2.69-5.18-5.31-7.88-7.85L87.9,79.94l72-124.7
		c-3.16-1.94-6.37-3.79-9.65-5.54L78.27,74.37l37.23-138.94c-3.54-1.05-7.13-1.98-10.76-2.83L67.52,71.49V-72.12
		c-1.64-0.04-3.27-0.12-4.92-0.12c-2.08,0-4.14,0.09-6.2,0.16V71.49L19.25-67.11c-3.62,0.86-7.21,1.81-10.75,2.88l37.14,138.6
		L-26.05-49.8c-3.27,1.77-6.45,3.67-9.59,5.63l71.65,124.1L-65.22-21.29c-2.69,2.55-5.31,5.18-7.85,7.88L28.14,87.8L-95.8,16.25
		c-1.95,3.15-3.8,6.36-5.56,9.64L22.58,97.44L-115.6,60.42c-1.06,3.54-2,7.13-2.85,10.76L19.7,108.19h-142.95
		c-0.05,1.85-0.14,3.7-0.14,5.56c0,1.87,0.09,3.71,0.14,5.56H19.7l-138.14,37.01c0.85,3.63,1.79,7.22,2.85,10.76l138.17-37.02
		l-123.93,71.55c1.76,3.27,3.62,6.48,5.56,9.64L28.14,139.7L-73.08,240.91c2.54,2.71,5.16,5.33,7.85,7.88L36.01,147.57l-71.65,124.1
		c3.14,1.96,6.33,3.86,9.6,5.63l71.69-124.17L8.51,291.73c3.54,1.07,7.12,2.02,10.75,2.88l37.14-138.61v143.58
		c2.06,0.07,4.12,0.16,6.2,0.16c1.65,0,3.28-0.08,4.92-0.12V156.01l37.21,138.88c3.63-0.84,7.22-1.78,10.76-2.82L78.27,153.13
		l71.98,124.68c3.28-1.75,6.49-3.6,9.65-5.54l-72-124.7l101.86,101.86c2.71-2.54,5.33-5.16,7.88-7.85L95.77,139.7l124.87,72.09
		c1.96-3.15,3.85-6.34,5.62-9.61l-124.92-72.12l139.36,37.34c1.06-3.54,2.01-7.13,2.86-10.75l-139.35-37.34h144.24
		c0.05-1.85,0.14-3.7,0.14-5.56c0-1.87-0.09-3.71-0.14-5.56H104.21L243.56,70.85z"/>
	
		<ellipse transform="matrix(0.7071 -0.7071 0.7071 0.7071 -64.8584 78.7214)" display="inline" fill="#E9F408" cx="62.6" cy="117.65" rx="168.21" ry="168.21"/>
	<circle display="inline" fill="#EAA813" cx="62.6" cy="113.75" r="168.21"/>
	<path display="inline" fill="#DD7E1F" d="M62.6,257.68c-76.08,0-137.97-61.89-137.97-137.97c0-76.08,61.89-137.97,137.97-137.97
		c76.08,0,137.97,61.89,137.97,137.97C200.57,195.79,138.67,257.68,62.6,257.68z M62.6-11.1c-72.13,0-130.81,58.68-130.81,130.81
		S-9.54,250.53,62.6,250.53c72.13,0,130.82-58.68,130.82-130.82S134.73-11.1,62.6-11.1z"/>
	<path display="inline" fill="#F2CD19" d="M62.6,251.72c-76.08,0-137.97-61.89-137.97-137.97c0-76.08,61.89-137.97,137.97-137.97
		c76.08,0,137.97,61.89,137.97,137.97C200.57,189.83,138.67,251.72,62.6,251.72z M62.6-17.06c-72.13,0-130.81,58.68-130.81,130.81
		S-9.54,244.57,62.6,244.57c72.13,0,130.82-58.68,130.82-130.82S134.73-17.06,62.6-17.06z"/>
	<path display="inline" fill="#DD7E1F" d="M62.6-42.54c90.9,0,164.92,72.12,168.06,162.25c0.07-1.98,0.15-3.96,0.15-5.96
		c0-92.9-75.31-168.21-168.21-168.21c-92.9,0-168.21,75.31-168.21,168.21c0,2,0.08,3.98,0.15,5.96
		C-102.32,29.58-28.31-42.54,62.6-42.54z"/>
</g>
<g id="DESIGNED_BY_FREEPIK">
	<g display="none">
		<polygon display="inline" fill="#DD7E1F" points="119.22,46.47 119.21,120.95 70.21,149.17 70.22,75.3 5.25,37.57 32.09,22.17 
			54.97,9.12 		"/>
		<polygon display="inline" fill="#DD7E1F" points="63.24,218.37 38.8,203.72 14.64,189.25 14.56,105.65 38.74,92.13 46.28,87.91 
			63.17,78.47 63.21,152.64 		"/>
	</g>
	<g>
		<polygon fill="#F2CD19" points="123.22,45.24 123.21,121.49 73.21,150.38 73.22,74.75 6.8,36.13 34.34,20.36 57.61,7 		"/>
		<polygon fill="#F2CD19" points="66.28,221.22 41.25,206.23 16.52,191.42 16.44,105.82 41.19,91.98 48.91,87.66 66.21,77.99 
			66.25,153.93 		"/>
	</g>
</g>
</svg>
