<?xml version="1.0" standalone="no"?>
<!DOCTYPE svg PUBLIC "-//W3C//DTD SVG 20010904//EN"
 "http://www.w3.org/TR/2001/REC-SVG-20010904/DTD/svg10.dtd">
<svg version="1.0" xmlns="http://www.w3.org/2000/svg"
 width="1023.000000pt" height="1023.000000pt" viewBox="0 0 1023.000000 1023.000000"
 preserveAspectRatio="xMidYMid meet">
<metadata>
Created by potrace 1.11, written by Peter Selinger 2001-2013
</metadata>
<g transform="translate(0.000000,1023.000000) scale(0.100000,-0.100000)"
fill="#000000" stroke="none">
<path d="M210 7095 l0 -635 635 0 635 0 0 635 0 635 -635 0 -635 0 0 -635z"/>
<path d="M2210 5140 l0 -2590 640 0 640 0 0 1955 0 1955 1305 0 1305 0 0 635
0 635 -1945 0 -1945 0 0 -2590z"/>
<path d="M6790 5765 l0 -1965 -1305 0 -1305 0 0 -640 0 -640 1943 2 1942 3 3
2603 2 2602 -640 0 -640 0 0 -1965z"/>
<path d="M8770 7095 l0 -635 640 0 640 0 0 635 0 635 -640 0 -640 0 0 -635z"/>
</g>
</svg>
